<?xml version="1.0" encoding="utf-8"?>
<svg id="eUmi8O57BvC1" viewBox="192.793 84.802 99.385 99.715" shape-rendering="geometricPrecision" text-rendering="geometricPrecision" xmlns="http://www.w3.org/2000/svg">
  <path id="eUmi8O57BvC2" d="" fill="none" stroke="rgb(169,169,169)" stroke-width="10" stroke-linecap="square"/>
  <path id="eUmi8O57BvC3" d="M 200.141 92.356 L 284.379 92.356" fill="none" stroke="rgb(169,169,169)" stroke-width="10" stroke-linecap="square" style=""/>
  <path id="eUmi8O57BvC4" d="M 242.26 134.475 L 326.498 134.475" fill="none" stroke="rgb(169,169,169)" stroke-width="10" stroke-linecap="square" style="" transform="matrix(0, 1, -1, 0, 418.853996, -149.903984)"/>
  <path id="eUmi8O57BvC5" d="" fill="none" stroke="rgb(169,169,169)" stroke-width="10" stroke-linecap="square"/>
  <path id="eUmi8O57BvC6" d="M 200.141 127.338 L 200.141 92.356" fill="none" stroke="rgb(169,169,169)" stroke-width="10" stroke-linecap="square" style=""/>
  <path id="eUmi8O57BvC7" d="" fill="none" stroke="rgb(169,169,169)" stroke-width="10" stroke-linecap="square"/>
  <path id="eUmi8O57BvC8" d="M 266.888 194.085 L 266.888 159.103" fill="none" stroke="rgb(169,169,169)" stroke-width="10" stroke-linecap="square" style="" transform="matrix(0, 1, -1, 0, 443.482002, -90.293999)"/>
  <path id="eUmi8O57BvC9" d="M 200.141 127.338 C 225.47 125.877 249.064 151.538 249.397 176.594" fill="none" stroke="rgb(169,169,169)" stroke-width="10" style=""/>
  <path id="eUmi8O57BvC10" d="" fill="none" stroke="rgb(63,87,135)" stroke-width="1.28"/>
  <path id="eUmi8O57BvC11" d="M 200.141 176.594 L 224.769 176.594" fill="none" stroke="rgb(169,169,169)" stroke-width="10" stroke-linecap="square" style=""/>
  <path id="eUmi8O57BvC12" d="M 212.455 164.28 L 237.083 164.28" fill="none" stroke="rgb(169,169,169)" stroke-width="10" stroke-linecap="square" style="" transform="matrix(0, 1, -1, 0, 389.048996, -60.488998)"/>
  <path id="eUmi8O57BvC13" d="M 200.141 151.936 L 224.769 151.936" fill="none" stroke="rgb(169,169,169)" stroke-width="10" stroke-linecap="square" style="" transform="matrix(-1, 0, 0, -1, 424.910004, 303.872009)"/>
  <path id="eUmi8O57BvC14" d="M 187.827 164.25 L 212.455 164.25" fill="none" stroke="rgb(169,169,169)" stroke-width="10" stroke-linecap="square" style="" transform="matrix(0, 1, -1, 0, 364.390999, -35.890999)"/>
</svg>